<?xml version="1.0" encoding="utf-8" standalone="no"?>
<!DOCTYPE svg PUBLIC "-//W3C//DTD SVG 1.1//EN"
  "http://www.w3.org/Graphics/SVG/1.1/DTD/svg11.dtd">
<svg xmlns:xlink="http://www.w3.org/1999/xlink" width="679.165625pt" height="424.514375pt" viewBox="0 0 679.165625 424.514375" xmlns="http://www.w3.org/2000/svg" version="1.1">
 <metadata>
  <rdf:RDF xmlns:dc="http://purl.org/dc/elements/1.1/" xmlns:cc="http://creativecommons.org/ns#" xmlns:rdf="http://www.w3.org/1999/02/22-rdf-syntax-ns#">
   <cc:Work>
    <dc:type rdf:resource="http://purl.org/dc/dcmitype/StillImage"/>
    <dc:date>2023-04-24T19:37:58.717697</dc:date>
    <dc:format>image/svg+xml</dc:format>
    <dc:creator>
     <cc:Agent>
      <dc:title>Matplotlib v3.7.1, https://matplotlib.org/</dc:title>
     </cc:Agent>
    </dc:creator>
   </cc:Work>
  </rdf:RDF>
 </metadata>
 <defs>
  <style type="text/css">*{stroke-linejoin: round; stroke-linecap: butt}</style>
 </defs>
 <g id="figure_1">
  <g id="patch_1">
   <path d="M 0 424.514375 
L 679.165625 424.514375 
L 679.165625 0 
L 0 0 
z
" style="fill: #ffffff"/>
  </g>
  <g id="axes_1">
   <g id="patch_2">
    <path d="M 46.965625 386.68 
L 604.965625 386.68 
L 604.965625 54.04 
L 46.965625 54.04 
z
" style="fill: #ffffff"/>
   </g>
   <g id="patch_3">
    <path d="M 72.329261 386.68 
L 85.33455 386.68 
L 85.33455 349.181224 
L 72.329261 349.181224 
z
" clip-path="url(#pbd50fc2694)" style="fill: #0000ff; fill-opacity: 0.75; stroke: #000000; stroke-linejoin: miter"/>
   </g>
   <g id="patch_4">
    <path d="M 85.33455 386.68 
L 98.339838 386.68 
L 98.339838 343.362449 
L 85.33455 343.362449 
z
" clip-path="url(#pbd50fc2694)" style="fill: #0000ff; fill-opacity: 0.75; stroke: #000000; stroke-linejoin: miter"/>
   </g>
   <g id="patch_5">
    <path d="M 98.339838 386.68 
L 111.345126 386.68 
L 111.345126 336.250612 
L 98.339838 336.250612 
z
" clip-path="url(#pbd50fc2694)" style="fill: #0000ff; fill-opacity: 0.75; stroke: #000000; stroke-linejoin: miter"/>
   </g>
   <g id="patch_6">
    <path d="M 111.345126 386.68 
L 124.350415 386.68 
L 124.350415 327.199184 
L 111.345126 327.199184 
z
" clip-path="url(#pbd50fc2694)" style="fill: #0000ff; fill-opacity: 0.75; stroke: #000000; stroke-linejoin: miter"/>
   </g>
   <g id="patch_7">
    <path d="M 124.350415 386.68 
L 137.355703 386.68 
L 137.355703 340.776327 
L 124.350415 340.776327 
z
" clip-path="url(#pbd50fc2694)" style="fill: #0000ff; fill-opacity: 0.75; stroke: #000000; stroke-linejoin: miter"/>
   </g>
   <g id="patch_8">
    <path d="M 137.355703 386.68 
L 150.360991 386.68 
L 150.360991 328.492245 
L 137.355703 328.492245 
z
" clip-path="url(#pbd50fc2694)" style="fill: #0000ff; fill-opacity: 0.75; stroke: #000000; stroke-linejoin: miter"/>
   </g>
   <g id="patch_9">
    <path d="M 150.360991 386.68 
L 163.366279 386.68 
L 163.366279 338.836735 
L 150.360991 338.836735 
z
" clip-path="url(#pbd50fc2694)" style="fill: #0000ff; fill-opacity: 0.75; stroke: #000000; stroke-linejoin: miter"/>
   </g>
   <g id="patch_10">
    <path d="M 163.366279 386.68 
L 176.371568 386.68 
L 176.371568 327.199184 
L 163.366279 327.199184 
z
" clip-path="url(#pbd50fc2694)" style="fill: #0000ff; fill-opacity: 0.75; stroke: #000000; stroke-linejoin: miter"/>
   </g>
   <g id="patch_11">
    <path d="M 176.371568 386.68 
L 189.376856 386.68 
L 189.376856 336.250612 
L 176.371568 336.250612 
z
" clip-path="url(#pbd50fc2694)" style="fill: #0000ff; fill-opacity: 0.75; stroke: #000000; stroke-linejoin: miter"/>
   </g>
   <g id="patch_12">
    <path d="M 189.376856 386.68 
L 202.382144 386.68 
L 202.382144 329.785306 
L 189.376856 329.785306 
z
" clip-path="url(#pbd50fc2694)" style="fill: #0000ff; fill-opacity: 0.75; stroke: #000000; stroke-linejoin: miter"/>
   </g>
   <g id="patch_13">
    <path d="M 202.382144 386.68 
L 215.387433 386.68 
L 215.387433 325.906122 
L 202.382144 325.906122 
z
" clip-path="url(#pbd50fc2694)" style="fill: #0000ff; fill-opacity: 0.75; stroke: #000000; stroke-linejoin: miter"/>
   </g>
   <g id="patch_14">
    <path d="M 215.387433 386.68 
L 228.392721 386.68 
L 228.392721 327.199184 
L 215.387433 327.199184 
z
" clip-path="url(#pbd50fc2694)" style="fill: #0000ff; fill-opacity: 0.75; stroke: #000000; stroke-linejoin: miter"/>
   </g>
   <g id="patch_15">
    <path d="M 228.392721 386.68 
L 241.398009 386.68 
L 241.398009 310.389388 
L 228.392721 310.389388 
z
" clip-path="url(#pbd50fc2694)" style="fill: #0000ff; fill-opacity: 0.75; stroke: #000000; stroke-linejoin: miter"/>
   </g>
   <g id="patch_16">
    <path d="M 241.398009 386.68 
L 254.403297 386.68 
L 254.403297 303.277551 
L 241.398009 303.277551 
z
" clip-path="url(#pbd50fc2694)" style="fill: #0000ff; fill-opacity: 0.75; stroke: #000000; stroke-linejoin: miter"/>
   </g>
   <g id="patch_17">
    <path d="M 254.403297 386.68 
L 267.408586 386.68 
L 267.408586 281.942041 
L 254.403297 281.942041 
z
" clip-path="url(#pbd50fc2694)" style="fill: #0000ff; fill-opacity: 0.75; stroke: #000000; stroke-linejoin: miter"/>
   </g>
   <g id="patch_18">
    <path d="M 267.408586 386.68 
L 280.413874 386.68 
L 280.413874 247.675918 
L 267.408586 247.675918 
z
" clip-path="url(#pbd50fc2694)" style="fill: #0000ff; fill-opacity: 0.75; stroke: #000000; stroke-linejoin: miter"/>
   </g>
   <g id="patch_19">
    <path d="M 280.413874 386.68 
L 293.419162 386.68 
L 293.419162 183.669388 
L 280.413874 183.669388 
z
" clip-path="url(#pbd50fc2694)" style="fill: #0000ff; fill-opacity: 0.75; stroke: #000000; stroke-linejoin: miter"/>
   </g>
   <g id="patch_20">
    <path d="M 293.419162 386.68 
L 306.424451 386.68 
L 306.424451 168.152653 
L 293.419162 168.152653 
z
" clip-path="url(#pbd50fc2694)" style="fill: #0000ff; fill-opacity: 0.75; stroke: #000000; stroke-linejoin: miter"/>
   </g>
   <g id="patch_21">
    <path d="M 306.424451 386.68 
L 319.429739 386.68 
L 319.429739 162.980408 
L 306.424451 162.980408 
z
" clip-path="url(#pbd50fc2694)" style="fill: #0000ff; fill-opacity: 0.75; stroke: #000000; stroke-linejoin: miter"/>
   </g>
   <g id="patch_22">
    <path d="M 319.429739 386.68 
L 332.435027 386.68 
L 332.435027 149.403265 
L 319.429739 149.403265 
z
" clip-path="url(#pbd50fc2694)" style="fill: #0000ff; fill-opacity: 0.75; stroke: #000000; stroke-linejoin: miter"/>
   </g>
   <g id="patch_23">
    <path d="M 332.435027 386.68 
L 345.440315 386.68 
L 345.440315 162.333878 
L 332.435027 162.333878 
z
" clip-path="url(#pbd50fc2694)" style="fill: #0000ff; fill-opacity: 0.75; stroke: #000000; stroke-linejoin: miter"/>
   </g>
   <g id="patch_24">
    <path d="M 345.440315 386.68 
L 358.445604 386.68 
L 358.445604 153.282449 
L 345.440315 153.282449 
z
" clip-path="url(#pbd50fc2694)" style="fill: #0000ff; fill-opacity: 0.75; stroke: #000000; stroke-linejoin: miter"/>
   </g>
   <g id="patch_25">
    <path d="M 358.445604 386.68 
L 371.450892 386.68 
L 371.450892 120.309388 
L 358.445604 120.309388 
z
" clip-path="url(#pbd50fc2694)" style="fill: #0000ff; fill-opacity: 0.75; stroke: #000000; stroke-linejoin: miter"/>
   </g>
   <g id="patch_26">
    <path d="M 371.450892 386.68 
L 384.45618 386.68 
L 384.45618 125.481633 
L 371.450892 125.481633 
z
" clip-path="url(#pbd50fc2694)" style="fill: #0000ff; fill-opacity: 0.75; stroke: #000000; stroke-linejoin: miter"/>
   </g>
   <g id="patch_27">
    <path d="M 384.45618 386.68 
L 397.461469 386.68 
L 397.461469 143.58449 
L 384.45618 143.58449 
z
" clip-path="url(#pbd50fc2694)" style="fill: #0000ff; fill-opacity: 0.75; stroke: #000000; stroke-linejoin: miter"/>
   </g>
   <g id="patch_28">
    <path d="M 397.461469 386.68 
L 410.466757 386.68 
L 410.466757 117.076735 
L 397.461469 117.076735 
z
" clip-path="url(#pbd50fc2694)" style="fill: #0000ff; fill-opacity: 0.75; stroke: #000000; stroke-linejoin: miter"/>
   </g>
   <g id="patch_29">
    <path d="M 410.466757 386.68 
L 423.472045 386.68 
L 423.472045 89.275918 
L 410.466757 89.275918 
z
" clip-path="url(#pbd50fc2694)" style="fill: #0000ff; fill-opacity: 0.75; stroke: #000000; stroke-linejoin: miter"/>
   </g>
   <g id="patch_30">
    <path d="M 423.472045 386.68 
L 436.477333 386.68 
L 436.477333 233.452245 
L 423.472045 233.452245 
z
" clip-path="url(#pbd50fc2694)" style="fill: #0000ff; fill-opacity: 0.75; stroke: #000000; stroke-linejoin: miter"/>
   </g>
   <g id="patch_31">
    <path d="M 436.477333 386.68 
L 449.482622 386.68 
L 449.482622 274.183673 
L 436.477333 274.183673 
z
" clip-path="url(#pbd50fc2694)" style="fill: #0000ff; fill-opacity: 0.75; stroke: #000000; stroke-linejoin: miter"/>
   </g>
   <g id="patch_32">
    <path d="M 449.482622 386.68 
L 462.48791 386.68 
L 462.48791 270.95102 
L 449.482622 270.95102 
z
" clip-path="url(#pbd50fc2694)" style="fill: #0000ff; fill-opacity: 0.75; stroke: #000000; stroke-linejoin: miter"/>
   </g>
   <g id="patch_33">
    <path d="M 462.48791 386.68 
L 475.493198 386.68 
L 475.493198 284.528163 
L 462.48791 284.528163 
z
" clip-path="url(#pbd50fc2694)" style="fill: #0000ff; fill-opacity: 0.75; stroke: #000000; stroke-linejoin: miter"/>
   </g>
   <g id="patch_34">
    <path d="M 475.493198 386.68 
L 488.498487 386.68 
L 488.498487 278.709388 
L 475.493198 278.709388 
z
" clip-path="url(#pbd50fc2694)" style="fill: #0000ff; fill-opacity: 0.75; stroke: #000000; stroke-linejoin: miter"/>
   </g>
   <g id="patch_35">
    <path d="M 488.498487 386.68 
L 501.503775 386.68 
L 501.503775 281.29551 
L 488.498487 281.29551 
z
" clip-path="url(#pbd50fc2694)" style="fill: #0000ff; fill-opacity: 0.75; stroke: #000000; stroke-linejoin: miter"/>
   </g>
   <g id="patch_36">
    <path d="M 501.503775 386.68 
L 514.509063 386.68 
L 514.509063 283.235102 
L 501.503775 283.235102 
z
" clip-path="url(#pbd50fc2694)" style="fill: #0000ff; fill-opacity: 0.75; stroke: #000000; stroke-linejoin: miter"/>
   </g>
   <g id="patch_37">
    <path d="M 514.509063 386.68 
L 527.514352 386.68 
L 527.514352 289.700408 
L 514.509063 289.700408 
z
" clip-path="url(#pbd50fc2694)" style="fill: #0000ff; fill-opacity: 0.75; stroke: #000000; stroke-linejoin: miter"/>
   </g>
   <g id="patch_38">
    <path d="M 527.514352 386.68 
L 540.51964 386.68 
L 540.51964 301.337959 
L 527.514352 301.337959 
z
" clip-path="url(#pbd50fc2694)" style="fill: #0000ff; fill-opacity: 0.75; stroke: #000000; stroke-linejoin: miter"/>
   </g>
   <g id="patch_39">
    <path d="M 540.51964 386.68 
L 553.524928 386.68 
L 553.524928 297.458776 
L 540.51964 297.458776 
z
" clip-path="url(#pbd50fc2694)" style="fill: #0000ff; fill-opacity: 0.75; stroke: #000000; stroke-linejoin: miter"/>
   </g>
   <g id="patch_40">
    <path d="M 553.524928 386.68 
L 566.530216 386.68 
L 566.530216 315.561633 
L 553.524928 315.561633 
z
" clip-path="url(#pbd50fc2694)" style="fill: #0000ff; fill-opacity: 0.75; stroke: #000000; stroke-linejoin: miter"/>
   </g>
   <g id="patch_41">
    <path d="M 566.530216 386.68 
L 579.535505 386.68 
L 579.535505 318.794286 
L 566.530216 318.794286 
z
" clip-path="url(#pbd50fc2694)" style="fill: #0000ff; fill-opacity: 0.75; stroke: #000000; stroke-linejoin: miter"/>
   </g>
   <g id="patch_42">
    <path d="M 72.368163 386.68 
L 89.833766 386.68 
L 89.833766 226.340408 
L 72.368163 226.340408 
z
" clip-path="url(#pbd50fc2694)" style="fill: #ffc0cb; fill-opacity: 0.75; stroke: #000000; stroke-linejoin: miter"/>
   </g>
   <g id="patch_43">
    <path d="M 89.833766 386.68 
L 107.29937 386.68 
L 107.29937 227.633469 
L 89.833766 227.633469 
z
" clip-path="url(#pbd50fc2694)" style="fill: #ffc0cb; fill-opacity: 0.75; stroke: #000000; stroke-linejoin: miter"/>
   </g>
   <g id="patch_44">
    <path d="M 107.29937 386.68 
L 124.764973 386.68 
L 124.764973 249.61551 
L 107.29937 249.61551 
z
" clip-path="url(#pbd50fc2694)" style="fill: #ffc0cb; fill-opacity: 0.75; stroke: #000000; stroke-linejoin: miter"/>
   </g>
   <g id="patch_45">
    <path d="M 124.764973 386.68 
L 142.230577 386.68 
L 142.230577 245.089796 
L 124.764973 245.089796 
z
" clip-path="url(#pbd50fc2694)" style="fill: #ffc0cb; fill-opacity: 0.75; stroke: #000000; stroke-linejoin: miter"/>
   </g>
   <g id="patch_46">
    <path d="M 142.230577 386.68 
L 159.69618 386.68 
L 159.69618 234.098776 
L 142.230577 234.098776 
z
" clip-path="url(#pbd50fc2694)" style="fill: #ffc0cb; fill-opacity: 0.75; stroke: #000000; stroke-linejoin: miter"/>
   </g>
   <g id="patch_47">
    <path d="M 159.69618 386.68 
L 177.161784 386.68 
L 177.161784 246.382857 
L 159.69618 246.382857 
z
" clip-path="url(#pbd50fc2694)" style="fill: #ffc0cb; fill-opacity: 0.75; stroke: #000000; stroke-linejoin: miter"/>
   </g>
   <g id="patch_48">
    <path d="M 177.161784 386.68 
L 194.627387 386.68 
L 194.627387 245.736327 
L 177.161784 245.736327 
z
" clip-path="url(#pbd50fc2694)" style="fill: #ffc0cb; fill-opacity: 0.75; stroke: #000000; stroke-linejoin: miter"/>
   </g>
   <g id="patch_49">
    <path d="M 194.627387 386.68 
L 212.092991 386.68 
L 212.092991 254.141224 
L 194.627387 254.141224 
z
" clip-path="url(#pbd50fc2694)" style="fill: #ffc0cb; fill-opacity: 0.75; stroke: #000000; stroke-linejoin: miter"/>
   </g>
   <g id="patch_50">
    <path d="M 212.092991 386.68 
L 229.558594 386.68 
L 229.558594 241.210612 
L 212.092991 241.210612 
z
" clip-path="url(#pbd50fc2694)" style="fill: #ffc0cb; fill-opacity: 0.75; stroke: #000000; stroke-linejoin: miter"/>
   </g>
   <g id="patch_51">
    <path d="M 229.558594 386.68 
L 247.024198 386.68 
L 247.024198 237.977959 
L 229.558594 237.977959 
z
" clip-path="url(#pbd50fc2694)" style="fill: #ffc0cb; fill-opacity: 0.75; stroke: #000000; stroke-linejoin: miter"/>
   </g>
   <g id="patch_52">
    <path d="M 247.024198 386.68 
L 264.489801 386.68 
L 264.489801 274.830204 
L 247.024198 274.830204 
z
" clip-path="url(#pbd50fc2694)" style="fill: #ffc0cb; fill-opacity: 0.75; stroke: #000000; stroke-linejoin: miter"/>
   </g>
   <g id="patch_53">
    <path d="M 264.489801 386.68 
L 281.955405 386.68 
L 281.955405 186.25551 
L 264.489801 186.25551 
z
" clip-path="url(#pbd50fc2694)" style="fill: #ffc0cb; fill-opacity: 0.75; stroke: #000000; stroke-linejoin: miter"/>
   </g>
   <g id="patch_54">
    <path d="M 281.955405 386.68 
L 299.421008 386.68 
L 299.421008 76.991837 
L 281.955405 76.991837 
z
" clip-path="url(#pbd50fc2694)" style="fill: #ffc0cb; fill-opacity: 0.75; stroke: #000000; stroke-linejoin: miter"/>
   </g>
   <g id="patch_55">
    <path d="M 299.421008 386.68 
L 316.886612 386.68 
L 316.886612 109.964898 
L 299.421008 109.964898 
z
" clip-path="url(#pbd50fc2694)" style="fill: #ffc0cb; fill-opacity: 0.75; stroke: #000000; stroke-linejoin: miter"/>
   </g>
   <g id="patch_56">
    <path d="M 316.886612 386.68 
L 334.352216 386.68 
L 334.352216 96.387755 
L 316.886612 96.387755 
z
" clip-path="url(#pbd50fc2694)" style="fill: #ffc0cb; fill-opacity: 0.75; stroke: #000000; stroke-linejoin: miter"/>
   </g>
   <g id="patch_57">
    <path d="M 334.352216 386.68 
L 351.817819 386.68 
L 351.817819 69.88 
L 334.352216 69.88 
z
" clip-path="url(#pbd50fc2694)" style="fill: #ffc0cb; fill-opacity: 0.75; stroke: #000000; stroke-linejoin: miter"/>
   </g>
   <g id="patch_58">
    <path d="M 351.817819 386.68 
L 369.283423 386.68 
L 369.283423 89.275918 
L 351.817819 89.275918 
z
" clip-path="url(#pbd50fc2694)" style="fill: #ffc0cb; fill-opacity: 0.75; stroke: #000000; stroke-linejoin: miter"/>
   </g>
   <g id="patch_59">
    <path d="M 369.283423 386.68 
L 386.749026 386.68 
L 386.749026 104.792653 
L 369.283423 104.792653 
z
" clip-path="url(#pbd50fc2694)" style="fill: #ffc0cb; fill-opacity: 0.75; stroke: #000000; stroke-linejoin: miter"/>
   </g>
   <g id="patch_60">
    <path d="M 386.749026 386.68 
L 404.21463 386.68 
L 404.21463 124.835102 
L 386.749026 124.835102 
z
" clip-path="url(#pbd50fc2694)" style="fill: #ffc0cb; fill-opacity: 0.75; stroke: #000000; stroke-linejoin: miter"/>
   </g>
   <g id="patch_61">
    <path d="M 404.21463 386.68 
L 421.680233 386.68 
L 421.680233 139.058776 
L 404.21463 139.058776 
z
" clip-path="url(#pbd50fc2694)" style="fill: #ffc0cb; fill-opacity: 0.75; stroke: #000000; stroke-linejoin: miter"/>
   </g>
   <g id="patch_62">
    <path d="M 421.680233 386.68 
L 439.145837 386.68 
L 439.145837 224.400816 
L 421.680233 224.400816 
z
" clip-path="url(#pbd50fc2694)" style="fill: #ffc0cb; fill-opacity: 0.75; stroke: #000000; stroke-linejoin: miter"/>
   </g>
   <g id="patch_63">
    <path d="M 439.145837 386.68 
L 456.61144 386.68 
L 456.61144 272.890612 
L 439.145837 272.890612 
z
" clip-path="url(#pbd50fc2694)" style="fill: #ffc0cb; fill-opacity: 0.75; stroke: #000000; stroke-linejoin: miter"/>
   </g>
   <g id="patch_64">
    <path d="M 456.61144 386.68 
L 474.077044 386.68 
L 474.077044 276.769796 
L 456.61144 276.769796 
z
" clip-path="url(#pbd50fc2694)" style="fill: #ffc0cb; fill-opacity: 0.75; stroke: #000000; stroke-linejoin: miter"/>
   </g>
   <g id="patch_65">
    <path d="M 474.077044 386.68 
L 491.542647 386.68 
L 491.542647 287.760816 
L 474.077044 287.760816 
z
" clip-path="url(#pbd50fc2694)" style="fill: #ffc0cb; fill-opacity: 0.75; stroke: #000000; stroke-linejoin: miter"/>
   </g>
   <g id="patch_66">
    <path d="M 491.542647 386.68 
L 509.008251 386.68 
L 509.008251 297.458776 
L 491.542647 297.458776 
z
" clip-path="url(#pbd50fc2694)" style="fill: #ffc0cb; fill-opacity: 0.75; stroke: #000000; stroke-linejoin: miter"/>
   </g>
   <g id="patch_67">
    <path d="M 509.008251 386.68 
L 526.473854 386.68 
L 526.473854 305.863673 
L 509.008251 305.863673 
z
" clip-path="url(#pbd50fc2694)" style="fill: #ffc0cb; fill-opacity: 0.75; stroke: #000000; stroke-linejoin: miter"/>
   </g>
   <g id="patch_68">
    <path d="M 526.473854 386.68 
L 543.939458 386.68 
L 543.939458 317.501224 
L 526.473854 317.501224 
z
" clip-path="url(#pbd50fc2694)" style="fill: #ffc0cb; fill-opacity: 0.75; stroke: #000000; stroke-linejoin: miter"/>
   </g>
   <g id="patch_69">
    <path d="M 543.939458 386.68 
L 561.405061 386.68 
L 561.405061 318.794286 
L 543.939458 318.794286 
z
" clip-path="url(#pbd50fc2694)" style="fill: #ffc0cb; fill-opacity: 0.75; stroke: #000000; stroke-linejoin: miter"/>
   </g>
   <g id="patch_70">
    <path d="M 561.405061 386.68 
L 578.870665 386.68 
L 578.870665 344.65551 
L 561.405061 344.65551 
z
" clip-path="url(#pbd50fc2694)" style="fill: #ffc0cb; fill-opacity: 0.75; stroke: #000000; stroke-linejoin: miter"/>
   </g>
   <g id="patch_71">
    <path d="M 72.912781 386.68 
L 94.942746 386.68 
L 94.942746 352.413878 
L 72.912781 352.413878 
z
" clip-path="url(#pbd50fc2694)" style="fill: #ffff00; fill-opacity: 0.75; stroke: #000000; stroke-linejoin: miter"/>
   </g>
   <g id="patch_72">
    <path d="M 94.942746 386.68 
L 116.972712 386.68 
L 116.972712 345.948571 
L 94.942746 345.948571 
z
" clip-path="url(#pbd50fc2694)" style="fill: #ffff00; fill-opacity: 0.75; stroke: #000000; stroke-linejoin: miter"/>
   </g>
   <g id="patch_73">
    <path d="M 116.972712 386.68 
L 139.002677 386.68 
L 139.002677 344.00898 
L 116.972712 344.00898 
z
" clip-path="url(#pbd50fc2694)" style="fill: #ffff00; fill-opacity: 0.75; stroke: #000000; stroke-linejoin: miter"/>
   </g>
   <g id="patch_74">
    <path d="M 139.002677 386.68 
L 161.032643 386.68 
L 161.032643 353.706939 
L 139.002677 353.706939 
z
" clip-path="url(#pbd50fc2694)" style="fill: #ffff00; fill-opacity: 0.75; stroke: #000000; stroke-linejoin: miter"/>
   </g>
   <g id="patch_75">
    <path d="M 161.032643 386.68 
L 183.062608 386.68 
L 183.062608 347.888163 
L 161.032643 347.888163 
z
" clip-path="url(#pbd50fc2694)" style="fill: #ffff00; fill-opacity: 0.75; stroke: #000000; stroke-linejoin: miter"/>
   </g>
   <g id="patch_76">
    <path d="M 183.062608 386.68 
L 205.092574 386.68 
L 205.092574 344.65551 
L 183.062608 344.65551 
z
" clip-path="url(#pbd50fc2694)" style="fill: #ffff00; fill-opacity: 0.75; stroke: #000000; stroke-linejoin: miter"/>
   </g>
   <g id="patch_77">
    <path d="M 205.092574 386.68 
L 227.12254 386.68 
L 227.12254 346.595102 
L 205.092574 346.595102 
z
" clip-path="url(#pbd50fc2694)" style="fill: #ffff00; fill-opacity: 0.75; stroke: #000000; stroke-linejoin: miter"/>
   </g>
   <g id="patch_78">
    <path d="M 227.12254 386.68 
L 249.152505 386.68 
L 249.152505 345.302041 
L 227.12254 345.302041 
z
" clip-path="url(#pbd50fc2694)" style="fill: #ffff00; fill-opacity: 0.75; stroke: #000000; stroke-linejoin: miter"/>
   </g>
   <g id="patch_79">
    <path d="M 249.152505 386.68 
L 271.182471 386.68 
L 271.182471 346.595102 
L 249.152505 346.595102 
z
" clip-path="url(#pbd50fc2694)" style="fill: #ffff00; fill-opacity: 0.75; stroke: #000000; stroke-linejoin: miter"/>
   </g>
   <g id="patch_80">
    <path d="M 271.182471 386.68 
L 293.212436 386.68 
L 293.212436 305.217143 
L 271.182471 305.217143 
z
" clip-path="url(#pbd50fc2694)" style="fill: #ffff00; fill-opacity: 0.75; stroke: #000000; stroke-linejoin: miter"/>
   </g>
   <g id="patch_81">
    <path d="M 293.212436 386.68 
L 315.242402 386.68 
L 315.242402 260.606531 
L 293.212436 260.606531 
z
" clip-path="url(#pbd50fc2694)" style="fill: #ffff00; fill-opacity: 0.75; stroke: #000000; stroke-linejoin: miter"/>
   </g>
   <g id="patch_82">
    <path d="M 315.242402 386.68 
L 337.272367 386.68 
L 337.272367 259.96 
L 315.242402 259.96 
z
" clip-path="url(#pbd50fc2694)" style="fill: #ffff00; fill-opacity: 0.75; stroke: #000000; stroke-linejoin: miter"/>
   </g>
   <g id="patch_83">
    <path d="M 337.272367 386.68 
L 359.302333 386.68 
L 359.302333 267.718367 
L 337.272367 267.718367 
z
" clip-path="url(#pbd50fc2694)" style="fill: #ffff00; fill-opacity: 0.75; stroke: #000000; stroke-linejoin: miter"/>
   </g>
   <g id="patch_84">
    <path d="M 359.302333 386.68 
L 381.332299 386.68 
L 381.332299 244.443265 
L 359.302333 244.443265 
z
" clip-path="url(#pbd50fc2694)" style="fill: #ffff00; fill-opacity: 0.75; stroke: #000000; stroke-linejoin: miter"/>
   </g>
   <g id="patch_85">
    <path d="M 381.332299 386.68 
L 403.362264 386.68 
L 403.362264 208.237551 
L 381.332299 208.237551 
z
" clip-path="url(#pbd50fc2694)" style="fill: #ffff00; fill-opacity: 0.75; stroke: #000000; stroke-linejoin: miter"/>
   </g>
   <g id="patch_86">
    <path d="M 403.362264 386.68 
L 425.39223 386.68 
L 425.39223 203.711837 
L 403.362264 203.711837 
z
" clip-path="url(#pbd50fc2694)" style="fill: #ffff00; fill-opacity: 0.75; stroke: #000000; stroke-linejoin: miter"/>
   </g>
   <g id="patch_87">
    <path d="M 425.39223 386.68 
L 447.422195 386.68 
L 447.422195 302.63102 
L 425.39223 302.63102 
z
" clip-path="url(#pbd50fc2694)" style="fill: #ffff00; fill-opacity: 0.75; stroke: #000000; stroke-linejoin: miter"/>
   </g>
   <g id="patch_88">
    <path d="M 447.422195 386.68 
L 469.452161 386.68 
L 469.452161 299.398367 
L 447.422195 299.398367 
z
" clip-path="url(#pbd50fc2694)" style="fill: #ffff00; fill-opacity: 0.75; stroke: #000000; stroke-linejoin: miter"/>
   </g>
   <g id="patch_89">
    <path d="M 469.452161 386.68 
L 491.482126 386.68 
L 491.482126 287.114286 
L 469.452161 287.114286 
z
" clip-path="url(#pbd50fc2694)" style="fill: #ffff00; fill-opacity: 0.75; stroke: #000000; stroke-linejoin: miter"/>
   </g>
   <g id="patch_90">
    <path d="M 491.482126 386.68 
L 513.512092 386.68 
L 513.512092 296.812245 
L 491.482126 296.812245 
z
" clip-path="url(#pbd50fc2694)" style="fill: #ffff00; fill-opacity: 0.75; stroke: #000000; stroke-linejoin: miter"/>
   </g>
   <g id="patch_91">
    <path d="M 513.512092 386.68 
L 535.542058 386.68 
L 535.542058 293.579592 
L 513.512092 293.579592 
z
" clip-path="url(#pbd50fc2694)" style="fill: #ffff00; fill-opacity: 0.75; stroke: #000000; stroke-linejoin: miter"/>
   </g>
   <g id="patch_92">
    <path d="M 535.542058 386.68 
L 557.572023 386.68 
L 557.572023 298.105306 
L 535.542058 298.105306 
z
" clip-path="url(#pbd50fc2694)" style="fill: #ffff00; fill-opacity: 0.75; stroke: #000000; stroke-linejoin: miter"/>
   </g>
   <g id="patch_93">
    <path d="M 557.572023 386.68 
L 579.601989 386.68 
L 579.601989 289.700408 
L 557.572023 289.700408 
z
" clip-path="url(#pbd50fc2694)" style="fill: #ffff00; fill-opacity: 0.75; stroke: #000000; stroke-linejoin: miter"/>
   </g>
   <g id="matplotlib.axis_1">
    <g id="xtick_1">
     <g id="line2d_1">
      <defs>
       <path id="m14c9cb189c" d="M 0 0 
L 0 3.5 
" style="stroke: #000000; stroke-width: 0.8"/>
      </defs>
      <g>
       <use xlink:href="#m14c9cb189c" x="72.329261" y="386.68" style="stroke: #000000; stroke-width: 0.8"/>
      </g>
     </g>
     <g id="text_1">
      <!-- 0.0 -->
      <g transform="translate(64.377699 401.278437) scale(0.1 -0.1)">
       <defs>
        <path id="DejaVuSans-30" d="M 2034 4250 
Q 1547 4250 1301 3770 
Q 1056 3291 1056 2328 
Q 1056 1369 1301 889 
Q 1547 409 2034 409 
Q 2525 409 2770 889 
Q 3016 1369 3016 2328 
Q 3016 3291 2770 3770 
Q 2525 4250 2034 4250 
z
M 2034 4750 
Q 2819 4750 3233 4129 
Q 3647 3509 3647 2328 
Q 3647 1150 3233 529 
Q 2819 -91 2034 -91 
Q 1250 -91 836 529 
Q 422 1150 422 2328 
Q 422 3509 836 4129 
Q 1250 4750 2034 4750 
z
" transform="scale(0.015625)"/>
        <path id="DejaVuSans-2e" d="M 684 794 
L 1344 794 
L 1344 0 
L 684 0 
L 684 794 
z
" transform="scale(0.015625)"/>
       </defs>
       <use xlink:href="#DejaVuSans-30"/>
       <use xlink:href="#DejaVuSans-2e" x="63.623047"/>
       <use xlink:href="#DejaVuSans-30" x="95.410156"/>
      </g>
     </g>
    </g>
    <g id="xtick_2">
     <g id="line2d_2">
      <g>
       <use xlink:href="#m14c9cb189c" x="173.783807" y="386.68" style="stroke: #000000; stroke-width: 0.8"/>
      </g>
     </g>
     <g id="text_2">
      <!-- 0.2 -->
      <g transform="translate(165.832244 401.278437) scale(0.1 -0.1)">
       <defs>
        <path id="DejaVuSans-32" d="M 1228 531 
L 3431 531 
L 3431 0 
L 469 0 
L 469 531 
Q 828 903 1448 1529 
Q 2069 2156 2228 2338 
Q 2531 2678 2651 2914 
Q 2772 3150 2772 3378 
Q 2772 3750 2511 3984 
Q 2250 4219 1831 4219 
Q 1534 4219 1204 4116 
Q 875 4013 500 3803 
L 500 4441 
Q 881 4594 1212 4672 
Q 1544 4750 1819 4750 
Q 2544 4750 2975 4387 
Q 3406 4025 3406 3419 
Q 3406 3131 3298 2873 
Q 3191 2616 2906 2266 
Q 2828 2175 2409 1742 
Q 1991 1309 1228 531 
z
" transform="scale(0.015625)"/>
       </defs>
       <use xlink:href="#DejaVuSans-30"/>
       <use xlink:href="#DejaVuSans-2e" x="63.623047"/>
       <use xlink:href="#DejaVuSans-32" x="95.410156"/>
      </g>
     </g>
    </g>
    <g id="xtick_3">
     <g id="line2d_3">
      <g>
       <use xlink:href="#m14c9cb189c" x="275.238352" y="386.68" style="stroke: #000000; stroke-width: 0.8"/>
      </g>
     </g>
     <g id="text_3">
      <!-- 0.4 -->
      <g transform="translate(267.28679 401.278437) scale(0.1 -0.1)">
       <defs>
        <path id="DejaVuSans-34" d="M 2419 4116 
L 825 1625 
L 2419 1625 
L 2419 4116 
z
M 2253 4666 
L 3047 4666 
L 3047 1625 
L 3713 1625 
L 3713 1100 
L 3047 1100 
L 3047 0 
L 2419 0 
L 2419 1100 
L 313 1100 
L 313 1709 
L 2253 4666 
z
" transform="scale(0.015625)"/>
       </defs>
       <use xlink:href="#DejaVuSans-30"/>
       <use xlink:href="#DejaVuSans-2e" x="63.623047"/>
       <use xlink:href="#DejaVuSans-34" x="95.410156"/>
      </g>
     </g>
    </g>
    <g id="xtick_4">
     <g id="line2d_4">
      <g>
       <use xlink:href="#m14c9cb189c" x="376.692898" y="386.68" style="stroke: #000000; stroke-width: 0.8"/>
      </g>
     </g>
     <g id="text_4">
      <!-- 0.6 -->
      <g transform="translate(368.741335 401.278437) scale(0.1 -0.1)">
       <defs>
        <path id="DejaVuSans-36" d="M 2113 2584 
Q 1688 2584 1439 2293 
Q 1191 2003 1191 1497 
Q 1191 994 1439 701 
Q 1688 409 2113 409 
Q 2538 409 2786 701 
Q 3034 994 3034 1497 
Q 3034 2003 2786 2293 
Q 2538 2584 2113 2584 
z
M 3366 4563 
L 3366 3988 
Q 3128 4100 2886 4159 
Q 2644 4219 2406 4219 
Q 1781 4219 1451 3797 
Q 1122 3375 1075 2522 
Q 1259 2794 1537 2939 
Q 1816 3084 2150 3084 
Q 2853 3084 3261 2657 
Q 3669 2231 3669 1497 
Q 3669 778 3244 343 
Q 2819 -91 2113 -91 
Q 1303 -91 875 529 
Q 447 1150 447 2328 
Q 447 3434 972 4092 
Q 1497 4750 2381 4750 
Q 2619 4750 2861 4703 
Q 3103 4656 3366 4563 
z
" transform="scale(0.015625)"/>
       </defs>
       <use xlink:href="#DejaVuSans-30"/>
       <use xlink:href="#DejaVuSans-2e" x="63.623047"/>
       <use xlink:href="#DejaVuSans-36" x="95.410156"/>
      </g>
     </g>
    </g>
    <g id="xtick_5">
     <g id="line2d_5">
      <g>
       <use xlink:href="#m14c9cb189c" x="478.147443" y="386.68" style="stroke: #000000; stroke-width: 0.8"/>
      </g>
     </g>
     <g id="text_5">
      <!-- 0.8 -->
      <g transform="translate(470.195881 401.278437) scale(0.1 -0.1)">
       <defs>
        <path id="DejaVuSans-38" d="M 2034 2216 
Q 1584 2216 1326 1975 
Q 1069 1734 1069 1313 
Q 1069 891 1326 650 
Q 1584 409 2034 409 
Q 2484 409 2743 651 
Q 3003 894 3003 1313 
Q 3003 1734 2745 1975 
Q 2488 2216 2034 2216 
z
M 1403 2484 
Q 997 2584 770 2862 
Q 544 3141 544 3541 
Q 544 4100 942 4425 
Q 1341 4750 2034 4750 
Q 2731 4750 3128 4425 
Q 3525 4100 3525 3541 
Q 3525 3141 3298 2862 
Q 3072 2584 2669 2484 
Q 3125 2378 3379 2068 
Q 3634 1759 3634 1313 
Q 3634 634 3220 271 
Q 2806 -91 2034 -91 
Q 1263 -91 848 271 
Q 434 634 434 1313 
Q 434 1759 690 2068 
Q 947 2378 1403 2484 
z
M 1172 3481 
Q 1172 3119 1398 2916 
Q 1625 2713 2034 2713 
Q 2441 2713 2670 2916 
Q 2900 3119 2900 3481 
Q 2900 3844 2670 4047 
Q 2441 4250 2034 4250 
Q 1625 4250 1398 4047 
Q 1172 3844 1172 3481 
z
" transform="scale(0.015625)"/>
       </defs>
       <use xlink:href="#DejaVuSans-30"/>
       <use xlink:href="#DejaVuSans-2e" x="63.623047"/>
       <use xlink:href="#DejaVuSans-38" x="95.410156"/>
      </g>
     </g>
    </g>
    <g id="xtick_6">
     <g id="line2d_6">
      <g>
       <use xlink:href="#m14c9cb189c" x="579.601989" y="386.68" style="stroke: #000000; stroke-width: 0.8"/>
      </g>
     </g>
     <g id="text_6">
      <!-- 1.0 -->
      <g transform="translate(571.650426 401.278437) scale(0.1 -0.1)">
       <defs>
        <path id="DejaVuSans-31" d="M 794 531 
L 1825 531 
L 1825 4091 
L 703 3866 
L 703 4441 
L 1819 4666 
L 2450 4666 
L 2450 531 
L 3481 531 
L 3481 0 
L 794 0 
L 794 531 
z
" transform="scale(0.015625)"/>
       </defs>
       <use xlink:href="#DejaVuSans-31"/>
       <use xlink:href="#DejaVuSans-2e" x="63.623047"/>
       <use xlink:href="#DejaVuSans-30" x="95.410156"/>
      </g>
     </g>
    </g>
    <g id="text_7">
     <!-- adjusted_mark -->
     <g transform="translate(288.96875 414.956562) scale(0.1 -0.1)">
      <defs>
       <path id="DejaVuSans-61" d="M 2194 1759 
Q 1497 1759 1228 1600 
Q 959 1441 959 1056 
Q 959 750 1161 570 
Q 1363 391 1709 391 
Q 2188 391 2477 730 
Q 2766 1069 2766 1631 
L 2766 1759 
L 2194 1759 
z
M 3341 1997 
L 3341 0 
L 2766 0 
L 2766 531 
Q 2569 213 2275 61 
Q 1981 -91 1556 -91 
Q 1019 -91 701 211 
Q 384 513 384 1019 
Q 384 1609 779 1909 
Q 1175 2209 1959 2209 
L 2766 2209 
L 2766 2266 
Q 2766 2663 2505 2880 
Q 2244 3097 1772 3097 
Q 1472 3097 1187 3025 
Q 903 2953 641 2809 
L 641 3341 
Q 956 3463 1253 3523 
Q 1550 3584 1831 3584 
Q 2591 3584 2966 3190 
Q 3341 2797 3341 1997 
z
" transform="scale(0.015625)"/>
       <path id="DejaVuSans-64" d="M 2906 2969 
L 2906 4863 
L 3481 4863 
L 3481 0 
L 2906 0 
L 2906 525 
Q 2725 213 2448 61 
Q 2172 -91 1784 -91 
Q 1150 -91 751 415 
Q 353 922 353 1747 
Q 353 2572 751 3078 
Q 1150 3584 1784 3584 
Q 2172 3584 2448 3432 
Q 2725 3281 2906 2969 
z
M 947 1747 
Q 947 1113 1208 752 
Q 1469 391 1925 391 
Q 2381 391 2643 752 
Q 2906 1113 2906 1747 
Q 2906 2381 2643 2742 
Q 2381 3103 1925 3103 
Q 1469 3103 1208 2742 
Q 947 2381 947 1747 
z
" transform="scale(0.015625)"/>
       <path id="DejaVuSans-6a" d="M 603 3500 
L 1178 3500 
L 1178 -63 
Q 1178 -731 923 -1031 
Q 669 -1331 103 -1331 
L -116 -1331 
L -116 -844 
L 38 -844 
Q 366 -844 484 -692 
Q 603 -541 603 -63 
L 603 3500 
z
M 603 4863 
L 1178 4863 
L 1178 4134 
L 603 4134 
L 603 4863 
z
" transform="scale(0.015625)"/>
       <path id="DejaVuSans-75" d="M 544 1381 
L 544 3500 
L 1119 3500 
L 1119 1403 
Q 1119 906 1312 657 
Q 1506 409 1894 409 
Q 2359 409 2629 706 
Q 2900 1003 2900 1516 
L 2900 3500 
L 3475 3500 
L 3475 0 
L 2900 0 
L 2900 538 
Q 2691 219 2414 64 
Q 2138 -91 1772 -91 
Q 1169 -91 856 284 
Q 544 659 544 1381 
z
M 1991 3584 
L 1991 3584 
z
" transform="scale(0.015625)"/>
       <path id="DejaVuSans-73" d="M 2834 3397 
L 2834 2853 
Q 2591 2978 2328 3040 
Q 2066 3103 1784 3103 
Q 1356 3103 1142 2972 
Q 928 2841 928 2578 
Q 928 2378 1081 2264 
Q 1234 2150 1697 2047 
L 1894 2003 
Q 2506 1872 2764 1633 
Q 3022 1394 3022 966 
Q 3022 478 2636 193 
Q 2250 -91 1575 -91 
Q 1294 -91 989 -36 
Q 684 19 347 128 
L 347 722 
Q 666 556 975 473 
Q 1284 391 1588 391 
Q 1994 391 2212 530 
Q 2431 669 2431 922 
Q 2431 1156 2273 1281 
Q 2116 1406 1581 1522 
L 1381 1569 
Q 847 1681 609 1914 
Q 372 2147 372 2553 
Q 372 3047 722 3315 
Q 1072 3584 1716 3584 
Q 2034 3584 2315 3537 
Q 2597 3491 2834 3397 
z
" transform="scale(0.015625)"/>
       <path id="DejaVuSans-74" d="M 1172 4494 
L 1172 3500 
L 2356 3500 
L 2356 3053 
L 1172 3053 
L 1172 1153 
Q 1172 725 1289 603 
Q 1406 481 1766 481 
L 2356 481 
L 2356 0 
L 1766 0 
Q 1100 0 847 248 
Q 594 497 594 1153 
L 594 3053 
L 172 3053 
L 172 3500 
L 594 3500 
L 594 4494 
L 1172 4494 
z
" transform="scale(0.015625)"/>
       <path id="DejaVuSans-65" d="M 3597 1894 
L 3597 1613 
L 953 1613 
Q 991 1019 1311 708 
Q 1631 397 2203 397 
Q 2534 397 2845 478 
Q 3156 559 3463 722 
L 3463 178 
Q 3153 47 2828 -22 
Q 2503 -91 2169 -91 
Q 1331 -91 842 396 
Q 353 884 353 1716 
Q 353 2575 817 3079 
Q 1281 3584 2069 3584 
Q 2775 3584 3186 3129 
Q 3597 2675 3597 1894 
z
M 3022 2063 
Q 3016 2534 2758 2815 
Q 2500 3097 2075 3097 
Q 1594 3097 1305 2825 
Q 1016 2553 972 2059 
L 3022 2063 
z
" transform="scale(0.015625)"/>
       <path id="DejaVuSans-5f" d="M 3263 -1063 
L 3263 -1509 
L -63 -1509 
L -63 -1063 
L 3263 -1063 
z
" transform="scale(0.015625)"/>
       <path id="DejaVuSans-6d" d="M 3328 2828 
Q 3544 3216 3844 3400 
Q 4144 3584 4550 3584 
Q 5097 3584 5394 3201 
Q 5691 2819 5691 2113 
L 5691 0 
L 5113 0 
L 5113 2094 
Q 5113 2597 4934 2840 
Q 4756 3084 4391 3084 
Q 3944 3084 3684 2787 
Q 3425 2491 3425 1978 
L 3425 0 
L 2847 0 
L 2847 2094 
Q 2847 2600 2669 2842 
Q 2491 3084 2119 3084 
Q 1678 3084 1418 2786 
Q 1159 2488 1159 1978 
L 1159 0 
L 581 0 
L 581 3500 
L 1159 3500 
L 1159 2956 
Q 1356 3278 1631 3431 
Q 1906 3584 2284 3584 
Q 2666 3584 2933 3390 
Q 3200 3197 3328 2828 
z
" transform="scale(0.015625)"/>
       <path id="DejaVuSans-72" d="M 2631 2963 
Q 2534 3019 2420 3045 
Q 2306 3072 2169 3072 
Q 1681 3072 1420 2755 
Q 1159 2438 1159 1844 
L 1159 0 
L 581 0 
L 581 3500 
L 1159 3500 
L 1159 2956 
Q 1341 3275 1631 3429 
Q 1922 3584 2338 3584 
Q 2397 3584 2469 3576 
Q 2541 3569 2628 3553 
L 2631 2963 
z
" transform="scale(0.015625)"/>
       <path id="DejaVuSans-6b" d="M 581 4863 
L 1159 4863 
L 1159 1991 
L 2875 3500 
L 3609 3500 
L 1753 1863 
L 3688 0 
L 2938 0 
L 1159 1709 
L 1159 0 
L 581 0 
L 581 4863 
z
" transform="scale(0.015625)"/>
      </defs>
      <use xlink:href="#DejaVuSans-61"/>
      <use xlink:href="#DejaVuSans-64" x="61.279297"/>
      <use xlink:href="#DejaVuSans-6a" x="124.755859"/>
      <use xlink:href="#DejaVuSans-75" x="152.539062"/>
      <use xlink:href="#DejaVuSans-73" x="215.917969"/>
      <use xlink:href="#DejaVuSans-74" x="268.017578"/>
      <use xlink:href="#DejaVuSans-65" x="307.226562"/>
      <use xlink:href="#DejaVuSans-64" x="368.75"/>
      <use xlink:href="#DejaVuSans-5f" x="432.226562"/>
      <use xlink:href="#DejaVuSans-6d" x="482.226562"/>
      <use xlink:href="#DejaVuSans-61" x="579.638672"/>
      <use xlink:href="#DejaVuSans-72" x="640.917969"/>
      <use xlink:href="#DejaVuSans-6b" x="682.03125"/>
     </g>
    </g>
   </g>
   <g id="matplotlib.axis_2">
    <g id="ytick_1">
     <g id="line2d_7">
      <defs>
       <path id="m0e428afe70" d="M 0 0 
L -3.5 0 
" style="stroke: #000000; stroke-width: 0.8"/>
      </defs>
      <g>
       <use xlink:href="#m0e428afe70" x="46.965625" y="386.68" style="stroke: #000000; stroke-width: 0.8"/>
      </g>
     </g>
     <g id="text_8">
      <!-- 0 -->
      <g transform="translate(33.603125 390.479219) scale(0.1 -0.1)">
       <use xlink:href="#DejaVuSans-30"/>
      </g>
     </g>
    </g>
    <g id="ytick_2">
     <g id="line2d_8">
      <g>
       <use xlink:href="#m0e428afe70" x="46.965625" y="322.026939" style="stroke: #000000; stroke-width: 0.8"/>
      </g>
     </g>
     <g id="text_9">
      <!-- 100 -->
      <g transform="translate(20.878125 325.826158) scale(0.1 -0.1)">
       <use xlink:href="#DejaVuSans-31"/>
       <use xlink:href="#DejaVuSans-30" x="63.623047"/>
       <use xlink:href="#DejaVuSans-30" x="127.246094"/>
      </g>
     </g>
    </g>
    <g id="ytick_3">
     <g id="line2d_9">
      <g>
       <use xlink:href="#m0e428afe70" x="46.965625" y="257.373878" style="stroke: #000000; stroke-width: 0.8"/>
      </g>
     </g>
     <g id="text_10">
      <!-- 200 -->
      <g transform="translate(20.878125 261.173096) scale(0.1 -0.1)">
       <use xlink:href="#DejaVuSans-32"/>
       <use xlink:href="#DejaVuSans-30" x="63.623047"/>
       <use xlink:href="#DejaVuSans-30" x="127.246094"/>
      </g>
     </g>
    </g>
    <g id="ytick_4">
     <g id="line2d_10">
      <g>
       <use xlink:href="#m0e428afe70" x="46.965625" y="192.720816" style="stroke: #000000; stroke-width: 0.8"/>
      </g>
     </g>
     <g id="text_11">
      <!-- 300 -->
      <g transform="translate(20.878125 196.520035) scale(0.1 -0.1)">
       <defs>
        <path id="DejaVuSans-33" d="M 2597 2516 
Q 3050 2419 3304 2112 
Q 3559 1806 3559 1356 
Q 3559 666 3084 287 
Q 2609 -91 1734 -91 
Q 1441 -91 1130 -33 
Q 819 25 488 141 
L 488 750 
Q 750 597 1062 519 
Q 1375 441 1716 441 
Q 2309 441 2620 675 
Q 2931 909 2931 1356 
Q 2931 1769 2642 2001 
Q 2353 2234 1838 2234 
L 1294 2234 
L 1294 2753 
L 1863 2753 
Q 2328 2753 2575 2939 
Q 2822 3125 2822 3475 
Q 2822 3834 2567 4026 
Q 2313 4219 1838 4219 
Q 1578 4219 1281 4162 
Q 984 4106 628 3988 
L 628 4550 
Q 988 4650 1302 4700 
Q 1616 4750 1894 4750 
Q 2613 4750 3031 4423 
Q 3450 4097 3450 3541 
Q 3450 3153 3228 2886 
Q 3006 2619 2597 2516 
z
" transform="scale(0.015625)"/>
       </defs>
       <use xlink:href="#DejaVuSans-33"/>
       <use xlink:href="#DejaVuSans-30" x="63.623047"/>
       <use xlink:href="#DejaVuSans-30" x="127.246094"/>
      </g>
     </g>
    </g>
    <g id="ytick_5">
     <g id="line2d_11">
      <g>
       <use xlink:href="#m0e428afe70" x="46.965625" y="128.067755" style="stroke: #000000; stroke-width: 0.8"/>
      </g>
     </g>
     <g id="text_12">
      <!-- 400 -->
      <g transform="translate(20.878125 131.866974) scale(0.1 -0.1)">
       <use xlink:href="#DejaVuSans-34"/>
       <use xlink:href="#DejaVuSans-30" x="63.623047"/>
       <use xlink:href="#DejaVuSans-30" x="127.246094"/>
      </g>
     </g>
    </g>
    <g id="ytick_6">
     <g id="line2d_12">
      <g>
       <use xlink:href="#m0e428afe70" x="46.965625" y="63.414694" style="stroke: #000000; stroke-width: 0.8"/>
      </g>
     </g>
     <g id="text_13">
      <!-- 500 -->
      <g transform="translate(20.878125 67.213913) scale(0.1 -0.1)">
       <defs>
        <path id="DejaVuSans-35" d="M 691 4666 
L 3169 4666 
L 3169 4134 
L 1269 4134 
L 1269 2991 
Q 1406 3038 1543 3061 
Q 1681 3084 1819 3084 
Q 2600 3084 3056 2656 
Q 3513 2228 3513 1497 
Q 3513 744 3044 326 
Q 2575 -91 1722 -91 
Q 1428 -91 1123 -41 
Q 819 9 494 109 
L 494 744 
Q 775 591 1075 516 
Q 1375 441 1709 441 
Q 2250 441 2565 725 
Q 2881 1009 2881 1497 
Q 2881 1984 2565 2268 
Q 2250 2553 1709 2553 
Q 1456 2553 1204 2497 
Q 953 2441 691 2322 
L 691 4666 
z
" transform="scale(0.015625)"/>
       </defs>
       <use xlink:href="#DejaVuSans-35"/>
       <use xlink:href="#DejaVuSans-30" x="63.623047"/>
       <use xlink:href="#DejaVuSans-30" x="127.246094"/>
      </g>
     </g>
    </g>
    <g id="text_14">
     <!-- Count -->
     <g transform="translate(14.798437 235.208437) rotate(-90) scale(0.1 -0.1)">
      <defs>
       <path id="DejaVuSans-43" d="M 4122 4306 
L 4122 3641 
Q 3803 3938 3442 4084 
Q 3081 4231 2675 4231 
Q 1875 4231 1450 3742 
Q 1025 3253 1025 2328 
Q 1025 1406 1450 917 
Q 1875 428 2675 428 
Q 3081 428 3442 575 
Q 3803 722 4122 1019 
L 4122 359 
Q 3791 134 3420 21 
Q 3050 -91 2638 -91 
Q 1578 -91 968 557 
Q 359 1206 359 2328 
Q 359 3453 968 4101 
Q 1578 4750 2638 4750 
Q 3056 4750 3426 4639 
Q 3797 4528 4122 4306 
z
" transform="scale(0.015625)"/>
       <path id="DejaVuSans-6f" d="M 1959 3097 
Q 1497 3097 1228 2736 
Q 959 2375 959 1747 
Q 959 1119 1226 758 
Q 1494 397 1959 397 
Q 2419 397 2687 759 
Q 2956 1122 2956 1747 
Q 2956 2369 2687 2733 
Q 2419 3097 1959 3097 
z
M 1959 3584 
Q 2709 3584 3137 3096 
Q 3566 2609 3566 1747 
Q 3566 888 3137 398 
Q 2709 -91 1959 -91 
Q 1206 -91 779 398 
Q 353 888 353 1747 
Q 353 2609 779 3096 
Q 1206 3584 1959 3584 
z
" transform="scale(0.015625)"/>
       <path id="DejaVuSans-6e" d="M 3513 2113 
L 3513 0 
L 2938 0 
L 2938 2094 
Q 2938 2591 2744 2837 
Q 2550 3084 2163 3084 
Q 1697 3084 1428 2787 
Q 1159 2491 1159 1978 
L 1159 0 
L 581 0 
L 581 3500 
L 1159 3500 
L 1159 2956 
Q 1366 3272 1645 3428 
Q 1925 3584 2291 3584 
Q 2894 3584 3203 3211 
Q 3513 2838 3513 2113 
z
" transform="scale(0.015625)"/>
      </defs>
      <use xlink:href="#DejaVuSans-43"/>
      <use xlink:href="#DejaVuSans-6f" x="69.824219"/>
      <use xlink:href="#DejaVuSans-75" x="131.005859"/>
      <use xlink:href="#DejaVuSans-6e" x="194.384766"/>
      <use xlink:href="#DejaVuSans-74" x="257.763672"/>
     </g>
    </g>
   </g>
   <g id="patch_94">
    <path d="M 46.965625 386.68 
L 46.965625 54.04 
" style="fill: none; stroke: #000000; stroke-width: 0.8; stroke-linejoin: miter; stroke-linecap: square"/>
   </g>
   <g id="patch_95">
    <path d="M 604.965625 386.68 
L 604.965625 54.04 
" style="fill: none; stroke: #000000; stroke-width: 0.8; stroke-linejoin: miter; stroke-linecap: square"/>
   </g>
   <g id="patch_96">
    <path d="M 46.965625 386.68 
L 604.965625 386.68 
" style="fill: none; stroke: #000000; stroke-width: 0.8; stroke-linejoin: miter; stroke-linecap: square"/>
   </g>
   <g id="patch_97">
    <path d="M 46.965625 54.04 
L 604.965625 54.04 
" style="fill: none; stroke: #000000; stroke-width: 0.8; stroke-linejoin: miter; stroke-linecap: square"/>
   </g>
  </g>
  <g id="legend_1">
   <g id="patch_98">
    <path d="M 603.364062 52.034375 
L 672.165625 52.034375 
Q 674.165625 52.034375 674.165625 50.034375 
L 674.165625 7 
Q 674.165625 5 672.165625 5 
L 603.364062 5 
Q 601.364062 5 601.364062 7 
L 601.364062 50.034375 
Q 601.364062 52.034375 603.364062 52.034375 
z
" style="fill: #ffffff; opacity: 0.8; stroke: #cccccc; stroke-linejoin: miter"/>
   </g>
   <g id="patch_99">
    <path d="M 605.364062 16.598437 
L 625.364062 16.598437 
L 625.364062 9.598437 
L 605.364062 9.598437 
z
" style="fill: #0000ff; fill-opacity: 0.75; stroke: #000000; stroke-linejoin: miter"/>
   </g>
   <g id="text_15">
    <!-- Group1 -->
    <g transform="translate(633.364062 16.598437) scale(0.1 -0.1)">
     <defs>
      <path id="DejaVuSans-47" d="M 3809 666 
L 3809 1919 
L 2778 1919 
L 2778 2438 
L 4434 2438 
L 4434 434 
Q 4069 175 3628 42 
Q 3188 -91 2688 -91 
Q 1594 -91 976 548 
Q 359 1188 359 2328 
Q 359 3472 976 4111 
Q 1594 4750 2688 4750 
Q 3144 4750 3555 4637 
Q 3966 4525 4313 4306 
L 4313 3634 
Q 3963 3931 3569 4081 
Q 3175 4231 2741 4231 
Q 1884 4231 1454 3753 
Q 1025 3275 1025 2328 
Q 1025 1384 1454 906 
Q 1884 428 2741 428 
Q 3075 428 3337 486 
Q 3600 544 3809 666 
z
" transform="scale(0.015625)"/>
      <path id="DejaVuSans-70" d="M 1159 525 
L 1159 -1331 
L 581 -1331 
L 581 3500 
L 1159 3500 
L 1159 2969 
Q 1341 3281 1617 3432 
Q 1894 3584 2278 3584 
Q 2916 3584 3314 3078 
Q 3713 2572 3713 1747 
Q 3713 922 3314 415 
Q 2916 -91 2278 -91 
Q 1894 -91 1617 61 
Q 1341 213 1159 525 
z
M 3116 1747 
Q 3116 2381 2855 2742 
Q 2594 3103 2138 3103 
Q 1681 3103 1420 2742 
Q 1159 2381 1159 1747 
Q 1159 1113 1420 752 
Q 1681 391 2138 391 
Q 2594 391 2855 752 
Q 3116 1113 3116 1747 
z
" transform="scale(0.015625)"/>
     </defs>
     <use xlink:href="#DejaVuSans-47"/>
     <use xlink:href="#DejaVuSans-72" x="77.490234"/>
     <use xlink:href="#DejaVuSans-6f" x="116.353516"/>
     <use xlink:href="#DejaVuSans-75" x="177.535156"/>
     <use xlink:href="#DejaVuSans-70" x="240.914062"/>
     <use xlink:href="#DejaVuSans-31" x="304.390625"/>
    </g>
   </g>
   <g id="patch_100">
    <path d="M 605.364062 31.276563 
L 625.364062 31.276563 
L 625.364062 24.276563 
L 605.364062 24.276563 
z
" style="fill: #ffc0cb; fill-opacity: 0.75; stroke: #000000; stroke-linejoin: miter"/>
   </g>
   <g id="text_16">
    <!-- Group2 -->
    <g transform="translate(633.364062 31.276563) scale(0.1 -0.1)">
     <use xlink:href="#DejaVuSans-47"/>
     <use xlink:href="#DejaVuSans-72" x="77.490234"/>
     <use xlink:href="#DejaVuSans-6f" x="116.353516"/>
     <use xlink:href="#DejaVuSans-75" x="177.535156"/>
     <use xlink:href="#DejaVuSans-70" x="240.914062"/>
     <use xlink:href="#DejaVuSans-32" x="304.390625"/>
    </g>
   </g>
   <g id="patch_101">
    <path d="M 605.364062 45.954687 
L 625.364062 45.954687 
L 625.364062 38.954687 
L 605.364062 38.954687 
z
" style="fill: #ffff00; fill-opacity: 0.75; stroke: #000000; stroke-linejoin: miter"/>
   </g>
   <g id="text_17">
    <!-- Group3 -->
    <g transform="translate(633.364062 45.954687) scale(0.1 -0.1)">
     <use xlink:href="#DejaVuSans-47"/>
     <use xlink:href="#DejaVuSans-72" x="77.490234"/>
     <use xlink:href="#DejaVuSans-6f" x="116.353516"/>
     <use xlink:href="#DejaVuSans-75" x="177.535156"/>
     <use xlink:href="#DejaVuSans-70" x="240.914062"/>
     <use xlink:href="#DejaVuSans-33" x="304.390625"/>
    </g>
   </g>
  </g>
 </g>
 <defs>
  <clipPath id="pbd50fc2694">
   <rect x="46.965625" y="54.04" width="558" height="332.64"/>
  </clipPath>
 </defs>
</svg>
