<?xml version="1.0" encoding="UTF-8" standalone="no"?><!DOCTYPE svg PUBLIC "-//W3C//DTD SVG 1.1//EN" "http://www.w3.org/Graphics/SVG/1.1/DTD/svg11.dtd"><!-- Generated by graphviz version 2.40.1 (20161225.0304)
 --><!-- Title: Tree Pages: 1 --><svg xmlns="http://www.w3.org/2000/svg" xmlns:xlink="http://www.w3.org/1999/xlink" width="980pt" height="378pt" viewBox="0.00 0.00 979.73 377.60">
<g id="graph0" class="graph" transform="scale(1 1) rotate(0) translate(4 373.6)">
<title>Tree</title>
<polygon fill="#ffffff" stroke="transparent" points="-4,4 -4,-373.6 975.7277,-373.6 975.7277,4 -4,4"/>
<!-- 0 -->
<g id="node1" class="node">
<title>0</title>
<polygon fill="#ddeefa" stroke="#000000" points="605.5375,-369.7003 369.2989,-369.7003 369.2989,-294.2997 605.5375,-294.2997 605.5375,-369.7003"/>
<text text-anchor="middle" x="487.4182" y="-353" font-family="Helvetica,sans-Serif" font-size="14.00" fill="#000000">num_of_prev_attempts &lt;= 0.5</text>
<text text-anchor="middle" x="487.4182" y="-336.2" font-family="Helvetica,sans-Serif" font-size="14.00" fill="#000000">samples = 100.0%</text>
<text text-anchor="middle" x="487.4182" y="-319.4" font-family="Helvetica,sans-Serif" font-size="14.00" fill="#000000">value = [0.182, 0.202, 0.374, 0.242]</text>
<text text-anchor="middle" x="487.4182" y="-302.6" font-family="Helvetica,sans-Serif" font-size="14.00" fill="#000000">class = Pass</text>
</g>
<!-- 1 -->
<g id="node2" class="node">
<title>1</title>
<polygon fill="#dbedfa" stroke="#000000" points="478.7547,-258.5003 250.0817,-258.5003 250.0817,-183.0997 478.7547,-183.0997 478.7547,-258.5003"/>
<text text-anchor="middle" x="364.4182" y="-241.8" font-family="Helvetica,sans-Serif" font-size="14.00" fill="#000000">attempted_weight &lt;= 71.5</text>
<text text-anchor="middle" x="364.4182" y="-225" font-family="Helvetica,sans-Serif" font-size="14.00" fill="#000000">samples = 87.9%</text>
<text text-anchor="middle" x="364.4182" y="-208.2" font-family="Helvetica,sans-Serif" font-size="14.00" fill="#000000">value = [0.177, 0.188, 0.385, 0.25]</text>
<text text-anchor="middle" x="364.4182" y="-191.4" font-family="Helvetica,sans-Serif" font-size="14.00" fill="#000000">class = Pass</text>
</g>
<!-- 0&#45;&gt;1 -->
<g id="edge1" class="edge">
<title>0-&gt;1</title>
<path fill="none" stroke="#000000" d="M445.776,-294.3528C435.457,-285.0237 424.3024,-274.9392 413.6584,-265.3164"/>
<polygon fill="#000000" stroke="#000000" points="415.7827,-262.5185 406.0175,-258.4085 411.0882,-267.7111 415.7827,-262.5185"/>
<text text-anchor="middle" x="407.2755" y="-279.1768" font-family="Helvetica,sans-Serif" font-size="14.00" fill="#000000">True</text>
</g>
<!-- 9324 -->
<g id="node9" class="node">
<title>9324</title>
<polygon fill="#fafefa" stroke="#000000" points="725.7547,-258.5003 497.0817,-258.5003 497.0817,-183.0997 725.7547,-183.0997 725.7547,-258.5003"/>
<text text-anchor="middle" x="611.4182" y="-241.8" font-family="Helvetica,sans-Serif" font-size="14.00" fill="#000000">attempted_weight &lt;= 80.5</text>
<text text-anchor="middle" x="611.4182" y="-225" font-family="Helvetica,sans-Serif" font-size="14.00" fill="#000000">samples = 12.1%</text>
<text text-anchor="middle" x="611.4182" y="-208.2" font-family="Helvetica,sans-Serif" font-size="14.00" fill="#000000">value = [0.22, 0.308, 0.291, 0.181]</text>
<text text-anchor="middle" x="611.4182" y="-191.4" font-family="Helvetica,sans-Serif" font-size="14.00" fill="#000000">class = Fail</text>
</g>
<!-- 0&#45;&gt;9324 -->
<g id="edge8" class="edge">
<title>0-&gt;9324</title>
<path fill="none" stroke="#000000" d="M529.3989,-294.3528C539.8019,-285.0237 551.0472,-274.9392 561.7776,-265.3164"/>
<polygon fill="#000000" stroke="#000000" points="564.3725,-267.6906 569.4807,-258.4085 559.6991,-262.4792 564.3725,-267.6906"/>
<text text-anchor="middle" x="568.1222" y="-279.1715" font-family="Helvetica,sans-Serif" font-size="14.00" fill="#000000">False</text>
</g>
<!-- 2 -->
<g id="node3" class="node">
<title>2</title>
<polygon fill="#f8e0ce" stroke="#000000" points="228.7547,-147.3003 .0817,-147.3003 .0817,-71.8997 228.7547,-71.8997 228.7547,-147.3003"/>
<text text-anchor="middle" x="114.4182" y="-130.6" font-family="Helvetica,sans-Serif" font-size="14.00" fill="#000000">code_module &lt;= 6.5</text>
<text text-anchor="middle" x="114.4182" y="-113.8" font-family="Helvetica,sans-Serif" font-size="14.00" fill="#000000">samples = 25.4%</text>
<text text-anchor="middle" x="114.4182" y="-97" font-family="Helvetica,sans-Serif" font-size="14.00" fill="#000000">value = [0.56, 0.414, 0.024, 0.002]</text>
<text text-anchor="middle" x="114.4182" y="-80.2" font-family="Helvetica,sans-Serif" font-size="14.00" fill="#000000">class = Withdrawn</text>
</g>
<!-- 1&#45;&gt;2 -->
<g id="edge2" class="edge">
<title>1-&gt;2</title>
<path fill="none" stroke="#000000" d="M279.7796,-183.1528C256.7697,-172.9179 231.7157,-161.7739 208.2307,-151.3278"/>
<polygon fill="#000000" stroke="#000000" points="209.529,-148.0747 198.9696,-147.2085 206.6841,-154.4706 209.529,-148.0747"/>
</g>
<!-- 2917 -->
<g id="node6" class="node">
<title>2917</title>
<polygon fill="#c7e3f8" stroke="#000000" points="483.5375,-147.3003 247.2989,-147.3003 247.2989,-71.8997 483.5375,-71.8997 483.5375,-147.3003"/>
<text text-anchor="middle" x="365.4182" y="-130.6" font-family="Helvetica,sans-Serif" font-size="14.00" fill="#000000">code_module &lt;= 4.5</text>
<text text-anchor="middle" x="365.4182" y="-113.8" font-family="Helvetica,sans-Serif" font-size="14.00" fill="#000000">samples = 62.5%</text>
<text text-anchor="middle" x="365.4182" y="-97" font-family="Helvetica,sans-Serif" font-size="14.00" fill="#000000">value = [0.017, 0.094, 0.536, 0.353]</text>
<text text-anchor="middle" x="365.4182" y="-80.2" font-family="Helvetica,sans-Serif" font-size="14.00" fill="#000000">class = Pass</text>
</g>
<!-- 1&#45;&gt;2917 -->
<g id="edge5" class="edge">
<title>1-&gt;2917</title>
<path fill="none" stroke="#000000" d="M364.7568,-183.1528C364.8317,-174.82 364.912,-165.8845 364.99,-157.2137"/>
<polygon fill="#000000" stroke="#000000" points="368.4898,-157.2396 365.08,-147.2085 361.4901,-157.1766 368.4898,-157.2396"/>
</g>
<!-- 3 -->
<g id="node4" class="node">
<title>3</title>
<polygon fill="#c0c0c0" stroke="#000000" points="105.4182,-36 51.4182,-36 51.4182,0 105.4182,0 105.4182,-36"/>
<text text-anchor="middle" x="78.4182" y="-13.8" font-family="Helvetica,sans-Serif" font-size="14.00" fill="#000000">(...)</text>
</g>
<!-- 2&#45;&gt;3 -->
<g id="edge3" class="edge">
<title>2-&gt;3</title>
<path fill="none" stroke="#000000" d="M99.5678,-71.8139C96.1529,-63.1249 92.5819,-54.0388 89.3673,-45.8593"/>
<polygon fill="#000000" stroke="#000000" points="92.5726,-44.4463 85.6573,-36.4196 86.0577,-47.0068 92.5726,-44.4463"/>
</g>
<!-- 2714 -->
<g id="node5" class="node">
<title>2714</title>
<polygon fill="#c0c0c0" stroke="#000000" points="177.4182,-36 123.4182,-36 123.4182,0 177.4182,0 177.4182,-36"/>
<text text-anchor="middle" x="150.4182" y="-13.8" font-family="Helvetica,sans-Serif" font-size="14.00" fill="#000000">(...)</text>
</g>
<!-- 2&#45;&gt;2714 -->
<g id="edge4" class="edge">
<title>2-&gt;2714</title>
<path fill="none" stroke="#000000" d="M129.2686,-71.8139C132.6835,-63.1249 136.2545,-54.0388 139.4691,-45.8593"/>
<polygon fill="#000000" stroke="#000000" points="142.7787,-47.0068 143.1791,-36.4196 136.2638,-44.4463 142.7787,-47.0068"/>
</g>
<!-- 2918 -->
<g id="node7" class="node">
<title>2918</title>
<polygon fill="#c0c0c0" stroke="#000000" points="356.4182,-36 302.4182,-36 302.4182,0 356.4182,0 356.4182,-36"/>
<text text-anchor="middle" x="329.4182" y="-13.8" font-family="Helvetica,sans-Serif" font-size="14.00" fill="#000000">(...)</text>
</g>
<!-- 2917&#45;&gt;2918 -->
<g id="edge6" class="edge">
<title>2917-&gt;2918</title>
<path fill="none" stroke="#000000" d="M350.5678,-71.8139C347.1529,-63.1249 343.5819,-54.0388 340.3673,-45.8593"/>
<polygon fill="#000000" stroke="#000000" points="343.5726,-44.4463 336.6573,-36.4196 337.0577,-47.0068 343.5726,-44.4463"/>
</g>
<!-- 5885 -->
<g id="node8" class="node">
<title>5885</title>
<polygon fill="#c0c0c0" stroke="#000000" points="428.4182,-36 374.4182,-36 374.4182,0 428.4182,0 428.4182,-36"/>
<text text-anchor="middle" x="401.4182" y="-13.8" font-family="Helvetica,sans-Serif" font-size="14.00" fill="#000000">(...)</text>
</g>
<!-- 2917&#45;&gt;5885 -->
<g id="edge7" class="edge">
<title>2917-&gt;5885</title>
<path fill="none" stroke="#000000" d="M380.2686,-71.8139C383.6835,-63.1249 387.2545,-54.0388 390.4691,-45.8593"/>
<polygon fill="#000000" stroke="#000000" points="393.7787,-47.0068 394.1791,-36.4196 387.2638,-44.4463 393.7787,-47.0068"/>
</g>
<!-- 9325 -->
<g id="node10" class="node">
<title>9325</title>
<polygon fill="#e5fbe3" stroke="#000000" points="717.1896,-147.3003 503.6468,-147.3003 503.6468,-71.8997 717.1896,-71.8997 717.1896,-147.3003"/>
<text text-anchor="middle" x="610.4182" y="-130.6" font-family="Helvetica,sans-Serif" font-size="14.00" fill="#000000">studied_credits &lt;= 125.0</text>
<text text-anchor="middle" x="610.4182" y="-113.8" font-family="Helvetica,sans-Serif" font-size="14.00" fill="#000000">samples = 6.0%</text>
<text text-anchor="middle" x="610.4182" y="-97" font-family="Helvetica,sans-Serif" font-size="14.00" fill="#000000">value = [0.429, 0.51, 0.061, 0.0]</text>
<text text-anchor="middle" x="610.4182" y="-80.2" font-family="Helvetica,sans-Serif" font-size="14.00" fill="#000000">class = Fail</text>
</g>
<!-- 9324&#45;&gt;9325 -->
<g id="edge9" class="edge">
<title>9324-&gt;9325</title>
<path fill="none" stroke="#000000" d="M611.0796,-183.1528C611.0047,-174.82 610.9244,-165.8845 610.8464,-157.2137"/>
<polygon fill="#000000" stroke="#000000" points="614.3463,-157.1766 610.7564,-147.2085 607.3466,-157.2396 614.3463,-157.1766"/>
</g>
<!-- 10026 -->
<g id="node13" class="node">
<title>10026</title>
<polygon fill="#cde6f8" stroke="#000000" points="971.5375,-147.3003 735.2989,-147.3003 735.2989,-71.8997 971.5375,-71.8997 971.5375,-147.3003"/>
<text text-anchor="middle" x="853.4182" y="-130.6" font-family="Helvetica,sans-Serif" font-size="14.00" fill="#000000">code_module &lt;= 2.5</text>
<text text-anchor="middle" x="853.4182" y="-113.8" font-family="Helvetica,sans-Serif" font-size="14.00" fill="#000000">samples = 6.0%</text>
<text text-anchor="middle" x="853.4182" y="-97" font-family="Helvetica,sans-Serif" font-size="14.00" fill="#000000">value = [0.005, 0.101, 0.527, 0.367]</text>
<text text-anchor="middle" x="853.4182" y="-80.2" font-family="Helvetica,sans-Serif" font-size="14.00" fill="#000000">class = Pass</text>
</g>
<!-- 9324&#45;&gt;10026 -->
<g id="edge12" class="edge">
<title>9324-&gt;10026</title>
<path fill="none" stroke="#000000" d="M693.3484,-183.1528C715.5234,-172.9632 739.6597,-161.8725 762.3059,-151.4665"/>
<polygon fill="#000000" stroke="#000000" points="763.9472,-154.5642 771.5724,-147.2085 761.0244,-148.2036 763.9472,-154.5642"/>
</g>
<!-- 9326 -->
<g id="node11" class="node">
<title>9326</title>
<polygon fill="#c0c0c0" stroke="#000000" points="601.4182,-36 547.4182,-36 547.4182,0 601.4182,0 601.4182,-36"/>
<text text-anchor="middle" x="574.4182" y="-13.8" font-family="Helvetica,sans-Serif" font-size="14.00" fill="#000000">(...)</text>
</g>
<!-- 9325&#45;&gt;9326 -->
<g id="edge10" class="edge">
<title>9325-&gt;9326</title>
<path fill="none" stroke="#000000" d="M595.5678,-71.8139C592.1529,-63.1249 588.5819,-54.0388 585.3673,-45.8593"/>
<polygon fill="#000000" stroke="#000000" points="588.5726,-44.4463 581.6573,-36.4196 582.0577,-47.0068 588.5726,-44.4463"/>
</g>
<!-- 9921 -->
<g id="node12" class="node">
<title>9921</title>
<polygon fill="#c0c0c0" stroke="#000000" points="673.4182,-36 619.4182,-36 619.4182,0 673.4182,0 673.4182,-36"/>
<text text-anchor="middle" x="646.4182" y="-13.8" font-family="Helvetica,sans-Serif" font-size="14.00" fill="#000000">(...)</text>
</g>
<!-- 9325&#45;&gt;9921 -->
<g id="edge11" class="edge">
<title>9325-&gt;9921</title>
<path fill="none" stroke="#000000" d="M625.2686,-71.8139C628.6835,-63.1249 632.2545,-54.0388 635.4691,-45.8593"/>
<polygon fill="#000000" stroke="#000000" points="638.7787,-47.0068 639.1791,-36.4196 632.2638,-44.4463 638.7787,-47.0068"/>
</g>
<!-- 10027 -->
<g id="node14" class="node">
<title>10027</title>
<polygon fill="#c0c0c0" stroke="#000000" points="844.4182,-36 790.4182,-36 790.4182,0 844.4182,0 844.4182,-36"/>
<text text-anchor="middle" x="817.4182" y="-13.8" font-family="Helvetica,sans-Serif" font-size="14.00" fill="#000000">(...)</text>
</g>
<!-- 10026&#45;&gt;10027 -->
<g id="edge13" class="edge">
<title>10026-&gt;10027</title>
<path fill="none" stroke="#000000" d="M838.5678,-71.8139C835.1529,-63.1249 831.5819,-54.0388 828.3673,-45.8593"/>
<polygon fill="#000000" stroke="#000000" points="831.5726,-44.4463 824.6573,-36.4196 825.0577,-47.0068 831.5726,-44.4463"/>
</g>
<!-- 10264 -->
<g id="node15" class="node">
<title>10264</title>
<polygon fill="#c0c0c0" stroke="#000000" points="916.4182,-36 862.4182,-36 862.4182,0 916.4182,0 916.4182,-36"/>
<text text-anchor="middle" x="889.4182" y="-13.8" font-family="Helvetica,sans-Serif" font-size="14.00" fill="#000000">(...)</text>
</g>
<!-- 10026&#45;&gt;10264 -->
<g id="edge14" class="edge">
<title>10026-&gt;10264</title>
<path fill="none" stroke="#000000" d="M868.2686,-71.8139C871.6835,-63.1249 875.2545,-54.0388 878.4691,-45.8593"/>
<polygon fill="#000000" stroke="#000000" points="881.7787,-47.0068 882.1791,-36.4196 875.2638,-44.4463 881.7787,-47.0068"/>
</g>
</g>
</svg>