<?xml version="1.0" encoding="UTF-8" standalone="no"?><!DOCTYPE svg PUBLIC "-//W3C//DTD SVG 1.1//EN" "http://www.w3.org/Graphics/SVG/1.1/DTD/svg11.dtd"><!-- Generated by graphviz version 2.40.1 (20161225.0304)
 --><!-- Title: Tree Pages: 1 --><svg xmlns="http://www.w3.org/2000/svg" xmlns:xlink="http://www.w3.org/1999/xlink" width="1004pt" height="378pt" viewBox="0.00 0.00 1003.62 377.60">
<g id="graph0" class="graph" transform="scale(1 1) rotate(0) translate(4 373.6)">
<title>Tree</title>
<polygon fill="#ffffff" stroke="transparent" points="-4,4 -4,-373.6 999.619,-373.6 999.619,4 -4,4"/>
<!-- 0 -->
<g id="node1" class="node">
<title>0</title>
<polygon fill="#ddeefa" stroke="#000000" points="613.4288,-369.7003 377.1902,-369.7003 377.1902,-294.2997 613.4288,-294.2997 613.4288,-369.7003"/>
<text text-anchor="middle" x="495.3095" y="-353" font-family="Helvetica,sans-Serif" font-size="14.00" fill="#000000">num_of_prev_attempts &lt;= 0.5</text>
<text text-anchor="middle" x="495.3095" y="-336.2" font-family="Helvetica,sans-Serif" font-size="14.00" fill="#000000">samples = 100.0%</text>
<text text-anchor="middle" x="495.3095" y="-319.4" font-family="Helvetica,sans-Serif" font-size="14.00" fill="#000000">value = [0.179, 0.193, 0.379, 0.249]</text>
<text text-anchor="middle" x="495.3095" y="-302.6" font-family="Helvetica,sans-Serif" font-size="14.00" fill="#000000">class = Pass</text>
</g>
<!-- 1 -->
<g id="node2" class="node">
<title>1</title>
<polygon fill="#daedfa" stroke="#000000" points="486.4288,-258.5003 250.1902,-258.5003 250.1902,-183.0997 486.4288,-183.0997 486.4288,-258.5003"/>
<text text-anchor="middle" x="368.3095" y="-241.8" font-family="Helvetica,sans-Serif" font-size="14.00" fill="#000000">code_presentation &lt;= 2.5</text>
<text text-anchor="middle" x="368.3095" y="-225" font-family="Helvetica,sans-Serif" font-size="14.00" fill="#000000">samples = 87.8%</text>
<text text-anchor="middle" x="368.3095" y="-208.2" font-family="Helvetica,sans-Serif" font-size="14.00" fill="#000000">value = [0.173, 0.178, 0.394, 0.256]</text>
<text text-anchor="middle" x="368.3095" y="-191.4" font-family="Helvetica,sans-Serif" font-size="14.00" fill="#000000">class = Pass</text>
</g>
<!-- 0&#45;&gt;1 -->
<g id="edge1" class="edge">
<title>0-&gt;1</title>
<path fill="none" stroke="#000000" d="M452.3131,-294.3528C441.555,-284.9331 429.9174,-274.7433 418.8311,-265.0362"/>
<polygon fill="#000000" stroke="#000000" points="421.0909,-262.3628 411.2616,-258.4085 416.4796,-267.6293 421.0909,-262.3628"/>
<text text-anchor="middle" x="412.9163" y="-279.1537" font-family="Helvetica,sans-Serif" font-size="14.00" fill="#000000">True</text>
</g>
<!-- 9552 -->
<g id="node9" class="node">
<title>9552</title>
<polygon fill="#f6fef5" stroke="#000000" points="741.4288,-258.5003 505.1902,-258.5003 505.1902,-183.0997 741.4288,-183.0997 741.4288,-258.5003"/>
<text text-anchor="middle" x="623.3095" y="-241.8" font-family="Helvetica,sans-Serif" font-size="14.00" fill="#000000">id_student &lt;= 552069.5</text>
<text text-anchor="middle" x="623.3095" y="-225" font-family="Helvetica,sans-Serif" font-size="14.00" fill="#000000">samples = 12.2%</text>
<text text-anchor="middle" x="623.3095" y="-208.2" font-family="Helvetica,sans-Serif" font-size="14.00" fill="#000000">value = [0.224, 0.309, 0.272, 0.195]</text>
<text text-anchor="middle" x="623.3095" y="-191.4" font-family="Helvetica,sans-Serif" font-size="14.00" fill="#000000">class = Fail</text>
</g>
<!-- 0&#45;&gt;9552 -->
<g id="edge8" class="edge">
<title>0-&gt;9552</title>
<path fill="none" stroke="#000000" d="M538.6445,-294.3528C549.4872,-284.9331 561.2165,-274.7433 572.3901,-265.0362"/>
<polygon fill="#000000" stroke="#000000" points="574.7655,-267.609 580.0192,-258.4085 570.1746,-262.3246 574.7655,-267.609"/>
<text text-anchor="middle" x="578.2676" y="-279.147" font-family="Helvetica,sans-Serif" font-size="14.00" fill="#000000">False</text>
</g>
<!-- 2 -->
<g id="node3" class="node">
<title>2</title>
<polygon fill="#cae5f8" stroke="#000000" points="236.4288,-147.3003 .1902,-147.3003 .1902,-71.8997 236.4288,-71.8997 236.4288,-147.3003"/>
<text text-anchor="middle" x="118.3095" y="-130.6" font-family="Helvetica,sans-Serif" font-size="14.00" fill="#000000">code_module &lt;= 3.0</text>
<text text-anchor="middle" x="118.3095" y="-113.8" font-family="Helvetica,sans-Serif" font-size="14.00" fill="#000000">samples = 36.2%</text>
<text text-anchor="middle" x="118.3095" y="-97" font-family="Helvetica,sans-Serif" font-size="14.00" fill="#000000">value = [0.147, 0.188, 0.436, 0.229]</text>
<text text-anchor="middle" x="118.3095" y="-80.2" font-family="Helvetica,sans-Serif" font-size="14.00" fill="#000000">class = Pass</text>
</g>
<!-- 1&#45;&gt;2 -->
<g id="edge2" class="edge">
<title>1-&gt;2</title>
<path fill="none" stroke="#000000" d="M283.6709,-183.1528C260.661,-172.9179 235.607,-161.7739 212.122,-151.3278"/>
<polygon fill="#000000" stroke="#000000" points="213.4203,-148.0747 202.8609,-147.2085 210.5754,-154.4706 213.4203,-148.0747"/>
</g>
<!-- 3987 -->
<g id="node6" class="node">
<title>3987</title>
<polygon fill="#e6f3fc" stroke="#000000" points="483.646,-147.3003 254.973,-147.3003 254.973,-71.8997 483.646,-71.8997 483.646,-147.3003"/>
<text text-anchor="middle" x="369.3095" y="-130.6" font-family="Helvetica,sans-Serif" font-size="14.00" fill="#000000">edu &lt;= 0.5</text>
<text text-anchor="middle" x="369.3095" y="-113.8" font-family="Helvetica,sans-Serif" font-size="14.00" fill="#000000">samples = 51.6%</text>
<text text-anchor="middle" x="369.3095" y="-97" font-family="Helvetica,sans-Serif" font-size="14.00" fill="#000000">value = [0.191, 0.17, 0.365, 0.274]</text>
<text text-anchor="middle" x="369.3095" y="-80.2" font-family="Helvetica,sans-Serif" font-size="14.00" fill="#000000">class = Pass</text>
</g>
<!-- 1&#45;&gt;3987 -->
<g id="edge5" class="edge">
<title>1-&gt;3987</title>
<path fill="none" stroke="#000000" d="M368.6481,-183.1528C368.723,-174.82 368.8033,-165.8845 368.8813,-157.2137"/>
<polygon fill="#000000" stroke="#000000" points="372.3811,-157.2396 368.9713,-147.2085 365.3814,-157.1766 372.3811,-157.2396"/>
</g>
<!-- 3 -->
<g id="node4" class="node">
<title>3</title>
<polygon fill="#c0c0c0" stroke="#000000" points="109.3095,-36 55.3095,-36 55.3095,0 109.3095,0 109.3095,-36"/>
<text text-anchor="middle" x="82.3095" y="-13.8" font-family="Helvetica,sans-Serif" font-size="14.00" fill="#000000">(...)</text>
</g>
<!-- 2&#45;&gt;3 -->
<g id="edge3" class="edge">
<title>2-&gt;3</title>
<path fill="none" stroke="#000000" d="M103.4591,-71.8139C100.0442,-63.1249 96.4732,-54.0388 93.2586,-45.8593"/>
<polygon fill="#000000" stroke="#000000" points="96.4639,-44.4463 89.5486,-36.4196 89.949,-47.0068 96.4639,-44.4463"/>
</g>
<!-- 1354 -->
<g id="node5" class="node">
<title>1354</title>
<polygon fill="#c0c0c0" stroke="#000000" points="181.3095,-36 127.3095,-36 127.3095,0 181.3095,0 181.3095,-36"/>
<text text-anchor="middle" x="154.3095" y="-13.8" font-family="Helvetica,sans-Serif" font-size="14.00" fill="#000000">(...)</text>
</g>
<!-- 2&#45;&gt;1354 -->
<g id="edge4" class="edge">
<title>2-&gt;1354</title>
<path fill="none" stroke="#000000" d="M133.1599,-71.8139C136.5748,-63.1249 140.1458,-54.0388 143.3604,-45.8593"/>
<polygon fill="#000000" stroke="#000000" points="146.67,-47.0068 147.0704,-36.4196 140.1551,-44.4463 146.67,-47.0068"/>
</g>
<!-- 3988 -->
<g id="node7" class="node">
<title>3988</title>
<polygon fill="#c0c0c0" stroke="#000000" points="360.3095,-36 306.3095,-36 306.3095,0 360.3095,0 360.3095,-36"/>
<text text-anchor="middle" x="333.3095" y="-13.8" font-family="Helvetica,sans-Serif" font-size="14.00" fill="#000000">(...)</text>
</g>
<!-- 3987&#45;&gt;3988 -->
<g id="edge6" class="edge">
<title>3987-&gt;3988</title>
<path fill="none" stroke="#000000" d="M354.4591,-71.8139C351.0442,-63.1249 347.4732,-54.0388 344.2586,-45.8593"/>
<polygon fill="#000000" stroke="#000000" points="347.4639,-44.4463 340.5486,-36.4196 340.949,-47.0068 347.4639,-44.4463"/>
</g>
<!-- 8589 -->
<g id="node8" class="node">
<title>8589</title>
<polygon fill="#c0c0c0" stroke="#000000" points="432.3095,-36 378.3095,-36 378.3095,0 432.3095,0 432.3095,-36"/>
<text text-anchor="middle" x="405.3095" y="-13.8" font-family="Helvetica,sans-Serif" font-size="14.00" fill="#000000">(...)</text>
</g>
<!-- 3987&#45;&gt;8589 -->
<g id="edge7" class="edge">
<title>3987-&gt;8589</title>
<path fill="none" stroke="#000000" d="M384.1599,-71.8139C387.5748,-63.1249 391.1458,-54.0388 394.3604,-45.8593"/>
<polygon fill="#000000" stroke="#000000" points="397.67,-47.0068 398.0704,-36.4196 391.1551,-44.4463 397.67,-47.0068"/>
</g>
<!-- 9553 -->
<g id="node10" class="node">
<title>9553</title>
<polygon fill="#eafce9" stroke="#000000" points="740.4288,-147.3003 504.1902,-147.3003 504.1902,-71.8997 740.4288,-71.8997 740.4288,-147.3003"/>
<text text-anchor="middle" x="622.3095" y="-130.6" font-family="Helvetica,sans-Serif" font-size="14.00" fill="#000000">age_band &lt;= 1.5</text>
<text text-anchor="middle" x="622.3095" y="-113.8" font-family="Helvetica,sans-Serif" font-size="14.00" fill="#000000">samples = 7.6%</text>
<text text-anchor="middle" x="622.3095" y="-97" font-family="Helvetica,sans-Serif" font-size="14.00" fill="#000000">value = [0.207, 0.352, 0.269, 0.173]</text>
<text text-anchor="middle" x="622.3095" y="-80.2" font-family="Helvetica,sans-Serif" font-size="14.00" fill="#000000">class = Fail</text>
</g>
<!-- 9552&#45;&gt;9553 -->
<g id="edge9" class="edge">
<title>9552-&gt;9553</title>
<path fill="none" stroke="#000000" d="M622.9709,-183.1528C622.896,-174.82 622.8157,-165.8845 622.7377,-157.2137"/>
<polygon fill="#000000" stroke="#000000" points="626.2376,-157.1766 622.6477,-147.2085 619.2379,-157.2396 626.2376,-157.1766"/>
</g>
<!-- 10356 -->
<g id="node13" class="node">
<title>10356</title>
<polygon fill="#f9fcfe" stroke="#000000" points="995.4288,-147.3003 759.1902,-147.3003 759.1902,-71.8997 995.4288,-71.8997 995.4288,-147.3003"/>
<text text-anchor="middle" x="877.3095" y="-130.6" font-family="Helvetica,sans-Serif" font-size="14.00" fill="#000000">attempted_weight &lt;= 80.5</text>
<text text-anchor="middle" x="877.3095" y="-113.8" font-family="Helvetica,sans-Serif" font-size="14.00" fill="#000000">samples = 4.6%</text>
<text text-anchor="middle" x="877.3095" y="-97" font-family="Helvetica,sans-Serif" font-size="14.00" fill="#000000">value = [0.254, 0.236, 0.278, 0.233]</text>
<text text-anchor="middle" x="877.3095" y="-80.2" font-family="Helvetica,sans-Serif" font-size="14.00" fill="#000000">class = Pass</text>
</g>
<!-- 9552&#45;&gt;10356 -->
<g id="edge12" class="edge">
<title>9552-&gt;10356</title>
<path fill="none" stroke="#000000" d="M709.3023,-183.1528C732.6804,-172.9179 758.1353,-161.7739 781.996,-151.3278"/>
<polygon fill="#000000" stroke="#000000" points="783.6483,-154.4252 791.4052,-147.2085 780.841,-148.0128 783.6483,-154.4252"/>
</g>
<!-- 9554 -->
<g id="node11" class="node">
<title>9554</title>
<polygon fill="#c0c0c0" stroke="#000000" points="613.3095,-36 559.3095,-36 559.3095,0 613.3095,0 613.3095,-36"/>
<text text-anchor="middle" x="586.3095" y="-13.8" font-family="Helvetica,sans-Serif" font-size="14.00" fill="#000000">(...)</text>
</g>
<!-- 9553&#45;&gt;9554 -->
<g id="edge10" class="edge">
<title>9553-&gt;9554</title>
<path fill="none" stroke="#000000" d="M607.4591,-71.8139C604.0442,-63.1249 600.4732,-54.0388 597.2586,-45.8593"/>
<polygon fill="#000000" stroke="#000000" points="600.4639,-44.4463 593.5486,-36.4196 593.949,-47.0068 600.4639,-44.4463"/>
</g>
<!-- 10155 -->
<g id="node12" class="node">
<title>10155</title>
<polygon fill="#c0c0c0" stroke="#000000" points="685.3095,-36 631.3095,-36 631.3095,0 685.3095,0 685.3095,-36"/>
<text text-anchor="middle" x="658.3095" y="-13.8" font-family="Helvetica,sans-Serif" font-size="14.00" fill="#000000">(...)</text>
</g>
<!-- 9553&#45;&gt;10155 -->
<g id="edge11" class="edge">
<title>9553-&gt;10155</title>
<path fill="none" stroke="#000000" d="M637.1599,-71.8139C640.5748,-63.1249 644.1458,-54.0388 647.3604,-45.8593"/>
<polygon fill="#000000" stroke="#000000" points="650.67,-47.0068 651.0704,-36.4196 644.1551,-44.4463 650.67,-47.0068"/>
</g>
<!-- 10357 -->
<g id="node14" class="node">
<title>10357</title>
<polygon fill="#c0c0c0" stroke="#000000" points="868.3095,-36 814.3095,-36 814.3095,0 868.3095,0 868.3095,-36"/>
<text text-anchor="middle" x="841.3095" y="-13.8" font-family="Helvetica,sans-Serif" font-size="14.00" fill="#000000">(...)</text>
</g>
<!-- 10356&#45;&gt;10357 -->
<g id="edge13" class="edge">
<title>10356-&gt;10357</title>
<path fill="none" stroke="#000000" d="M862.4591,-71.8139C859.0442,-63.1249 855.4732,-54.0388 852.2586,-45.8593"/>
<polygon fill="#000000" stroke="#000000" points="855.4639,-44.4463 848.5486,-36.4196 848.949,-47.0068 855.4639,-44.4463"/>
</g>
<!-- 10602 -->
<g id="node15" class="node">
<title>10602</title>
<polygon fill="#c0c0c0" stroke="#000000" points="940.3095,-36 886.3095,-36 886.3095,0 940.3095,0 940.3095,-36"/>
<text text-anchor="middle" x="913.3095" y="-13.8" font-family="Helvetica,sans-Serif" font-size="14.00" fill="#000000">(...)</text>
</g>
<!-- 10356&#45;&gt;10602 -->
<g id="edge14" class="edge">
<title>10356-&gt;10602</title>
<path fill="none" stroke="#000000" d="M892.1599,-71.8139C895.5748,-63.1249 899.1458,-54.0388 902.3604,-45.8593"/>
<polygon fill="#000000" stroke="#000000" points="905.67,-47.0068 906.0704,-36.4196 899.1551,-44.4463 905.67,-47.0068"/>
</g>
</g>
</svg>